<svg width="668" height="416" viewBox="0 0 668 416" fill="none" xmlns="http://www.w3.org/2000/svg">
<g filter="url(#filter0_d_1_19)">
<ellipse cx="331.5" cy="215" rx="223.5" ry="168" fill="#FFF8EA"/>
<path d="M554.5 215C554.5 261.2 529.589 303.063 489.238 333.394C448.887 363.725 393.12 382.5 331.5 382.5C269.88 382.5 214.113 363.725 173.762 333.394C133.411 303.063 108.5 261.2 108.5 215C108.5 168.8 133.411 126.937 173.762 96.6057C214.113 66.2748 269.88 47.5 331.5 47.5C393.12 47.5 448.887 66.2748 489.238 96.6057C529.589 126.937 554.5 168.8 554.5 215Z" stroke="#594545"/>
</g>
<g filter="url(#filter1_d_1_19)">
<ellipse cx="159.988" cy="193.62" rx="95.5" ry="145" transform="rotate(33.771 159.988 193.62)" fill="#9E7676"/>
<path d="M238.958 246.428C216.747 279.643 187.784 303.764 158.934 315.926C130.079 328.091 101.401 328.273 79.6639 313.738C57.9266 299.202 47.14 272.629 47.3593 241.316C47.5785 210.008 58.8064 174.026 81.0174 140.812C103.228 107.597 132.192 83.4753 161.042 71.3127C189.896 59.1483 218.574 58.9658 240.312 73.5016C262.049 88.0375 272.835 114.61 272.616 145.923C272.397 177.232 261.169 213.213 238.958 246.428Z" stroke="#594545"/>
</g>
<g filter="url(#filter2_d_1_19)">
<ellipse cx="499.111" cy="171.587" rx="95.5" ry="145" transform="rotate(-42.1538 499.111 171.587)" fill="#9E7676"/>
<path d="M569.539 107.831C596.355 137.453 612.709 171.413 617.49 202.354C622.272 233.301 615.474 261.162 596.089 278.712C576.703 296.262 548.304 300.262 517.985 292.434C487.67 284.607 455.499 264.966 428.683 235.344C401.867 205.722 385.514 171.762 380.733 140.821C375.951 109.874 382.748 82.0124 402.134 64.4629C421.52 46.9133 449.918 42.913 480.238 50.7409C510.553 58.5676 542.723 78.2089 569.539 107.831Z" stroke="#594545"/>
</g>
<path d="M388.5 244.5C388.5 252.362 382.278 259.606 371.93 264.915C361.609 270.21 347.316 273.5 331.5 273.5C315.684 273.5 301.391 270.21 291.07 264.915C280.722 259.606 274.5 252.362 274.5 244.5C274.5 236.638 280.722 229.394 291.07 224.085C301.391 218.79 315.684 215.5 331.5 215.5C347.316 215.5 361.609 218.79 371.93 224.085C382.278 229.394 388.5 236.638 388.5 244.5Z" fill="black" stroke="black"/>
<g filter="url(#filter3_d_1_19)">
<path d="M295 316.879C321.409 315.26 333 297.131 333 277C333 300.12 339.118 321.571 375 316.879C302 514 138 326.5 295 316.879Z" fill="#F55050"/>
<path d="M423 302C402.918 310.643 387.23 315.279 375 316.879M238 302C264.997 316.726 280.741 317.753 295 316.879M295 316.879C321.409 315.26 333 297.131 333 277C333 300.12 339.118 321.571 375 316.879M295 316.879C138 326.5 302 514 375 316.879" stroke="black"/>
</g>
<path d="M315.427 332.734C316.291 332.734 316.928 332.566 317.73 332.258C318.155 332.094 318.728 332.089 319.129 331.868C319.694 331.556 320.304 331.315 320.883 331.003C321.534 330.653 322.297 330.533 322.888 330.09C323.189 329.864 323.589 329.84 323.907 329.652C324.305 329.417 324.713 329.227 325.123 329.008C326.154 328.458 327.183 327.909 328.195 327.302C329.103 326.757 329.983 326.117 330.954 325.682C331.776 325.313 332.463 324.661 333.3 324.292C334.227 323.885 335.093 323.227 335.954 322.696C336.685 322.245 337.446 321.735 338.141 321.221C339.156 320.469 340.221 319.772 341.213 318.995C341.539 318.739 341.802 318.452 342.088 318.154C342.45 317.775 342.934 317.563 343.285 317.168C343.743 316.653 344.267 316.162 344.741 315.668C345.544 314.833 346.202 313.813 347.01 313.005" stroke="black" stroke-linecap="round"/>
<path d="M308.462 186.725C309.329 195.627 309.168 203.762 308.215 209.711C307.739 212.69 307.068 215.092 306.246 216.764C305.41 218.465 304.495 219.262 303.601 219.349C302.707 219.436 301.655 218.83 300.507 217.323C299.378 215.841 298.257 213.613 297.214 210.782C295.132 205.128 293.404 197.178 292.538 188.275C291.671 179.373 291.832 171.238 292.785 165.289C293.261 162.31 293.932 159.908 294.754 158.236C295.59 156.535 296.505 155.738 297.399 155.651C298.293 155.564 299.345 156.17 300.493 157.677C301.622 159.159 302.743 161.387 303.786 164.218C305.868 169.872 307.596 177.822 308.462 186.725Z" fill="black" stroke="black"/>
<path d="M367.187 188.206C366.141 197.09 364.254 205.004 362.058 210.615C360.959 213.424 359.793 215.629 358.635 217.088C357.456 218.572 356.393 219.157 355.5 219.051C354.608 218.946 353.709 218.13 352.908 216.413C352.12 214.725 351.498 212.31 351.081 209.322C350.248 203.355 350.251 195.219 351.297 186.335C352.343 177.452 354.23 169.538 356.426 163.927C357.525 161.118 358.691 158.913 359.85 157.454C361.028 155.97 362.092 155.385 362.984 155.491C363.877 155.596 364.775 156.412 365.577 158.129C366.364 159.817 366.987 162.232 367.403 165.22C368.236 171.187 368.233 179.323 367.187 188.206Z" fill="black" stroke="black"/>
<path d="M303.5 165C303.5 167.432 303.061 169.61 302.372 171.161C302.027 171.937 301.629 172.534 301.212 172.931C300.798 173.324 300.39 173.5 300 173.5C299.61 173.5 299.202 173.324 298.788 172.931C298.371 172.534 297.973 171.937 297.628 171.161C296.939 169.61 296.5 167.432 296.5 165C296.5 162.568 296.939 160.39 297.628 158.839C297.973 158.063 298.371 157.466 298.788 157.069C299.202 156.676 299.61 156.5 300 156.5C300.39 156.5 300.798 156.676 301.212 157.069C301.629 157.466 302.027 158.063 302.372 158.839C303.061 160.39 303.5 162.568 303.5 165Z" fill="#D9D9D9" stroke="black"/>
<path d="M364.69 165.009C364.742 167.44 364.349 169.627 363.693 171.192C363.365 171.975 362.98 172.581 362.572 172.986C362.166 173.389 361.761 173.573 361.372 173.581C360.982 173.59 360.57 173.423 360.148 173.038C359.723 172.65 359.312 172.062 358.951 171.293C358.229 169.757 357.743 167.589 357.692 165.158C357.64 162.726 358.032 160.54 358.689 158.974C359.017 158.191 359.402 157.585 359.81 157.18C360.215 156.778 360.62 156.593 361.01 156.585C361.399 156.577 361.812 156.744 362.234 157.129C362.659 157.516 363.069 158.105 363.431 158.873C364.153 160.409 364.638 162.577 364.69 165.009Z" fill="#D9D9D9" stroke="black"/>
<path d="M364.5 227C364.5 227.217 364.383 227.497 364.005 227.838C363.628 228.178 363.044 228.529 362.246 228.877C360.653 229.573 358.316 230.211 355.39 230.751C349.547 231.83 341.454 232.5 332.5 232.5C323.546 232.5 315.453 231.83 309.61 230.751C306.684 230.211 304.347 229.573 302.754 228.877C301.956 228.529 301.372 228.178 300.995 227.838C300.617 227.497 300.5 227.217 300.5 227C300.5 226.783 300.617 226.503 300.995 226.162C301.372 225.822 301.956 225.471 302.754 225.123C304.347 224.427 306.684 223.789 309.61 223.249C315.453 222.17 323.546 221.5 332.5 221.5C341.454 221.5 349.547 222.17 355.39 223.249C358.316 223.789 360.653 224.427 362.246 225.123C363.044 225.471 363.628 225.822 364.005 226.162C364.383 226.503 364.5 226.783 364.5 227Z" fill="#D9D9D9" stroke="black"/>
<path d="M487.5 99.5C487.5 106.02 483.075 112.009 475.735 116.395C468.405 120.775 458.247 123.5 447 123.5C435.753 123.5 425.595 120.775 418.265 116.395C410.925 112.009 406.5 106.02 406.5 99.5C406.5 92.9802 410.925 86.9911 418.265 82.6051C425.595 78.2252 435.753 75.5 447 75.5C458.247 75.5 468.405 78.2252 475.735 82.6051C483.075 86.9911 487.5 92.9802 487.5 99.5Z" fill="#815B5B" stroke="#594545"/>
<path d="M603.153 256.211C596.566 257.531 589.435 253.548 583.222 245.75C577.027 237.975 571.848 226.521 569.184 213.228C566.519 199.936 566.883 187.371 569.603 177.809C572.33 168.219 577.375 161.795 583.962 160.474C590.55 159.154 597.68 163.137 603.893 170.935C610.088 178.71 615.267 190.164 617.931 203.457C620.596 216.749 620.232 229.314 617.512 238.876C614.785 248.466 609.74 254.89 603.153 256.211Z" fill="#815B5B" stroke="#594545"/>
<path d="M505.295 256.592C500.611 261.128 493.23 262.115 484.974 259.893C476.728 257.674 467.704 252.272 459.88 244.193C452.056 236.113 446.948 226.919 444.996 218.607C443.04 210.283 444.265 202.938 448.948 198.402C453.632 193.867 461.013 192.88 469.27 195.102C477.515 197.32 486.539 202.722 494.363 210.802C502.187 218.882 507.296 228.075 509.248 236.387C511.203 244.711 509.979 252.057 505.295 256.592Z" fill="#815B5B" stroke="#594545"/>
<defs>
<filter id="filter0_d_1_19" x="104" y="47" width="455" height="344" filterUnits="userSpaceOnUse" color-interpolation-filters="sRGB">
<feFlood flood-opacity="0" result="BackgroundImageFix"/>
<feColorMatrix in="SourceAlpha" type="matrix" values="0 0 0 0 0 0 0 0 0 0 0 0 0 0 0 0 0 0 127 0" result="hardAlpha"/>
<feOffset dy="4"/>
<feGaussianBlur stdDeviation="2"/>
<feComposite in2="hardAlpha" operator="out"/>
<feColorMatrix type="matrix" values="0 0 0 0 0 0 0 0 0 0 0 0 0 0 0 0 0 0 0.25 0"/>
<feBlend mode="normal" in2="BackgroundImageFix" result="effect1_dropShadow_1_19"/>
<feBlend mode="normal" in="SourceGraphic" in2="effect1_dropShadow_1_19" result="shape"/>
</filter>
<filter id="filter1_d_1_19" x="42.856" y="61.8805" width="234.263" height="273.478" filterUnits="userSpaceOnUse" color-interpolation-filters="sRGB">
<feFlood flood-opacity="0" result="BackgroundImageFix"/>
<feColorMatrix in="SourceAlpha" type="matrix" values="0 0 0 0 0 0 0 0 0 0 0 0 0 0 0 0 0 0 127 0" result="hardAlpha"/>
<feOffset dy="6"/>
<feGaussianBlur stdDeviation="2"/>
<feComposite in2="hardAlpha" operator="out"/>
<feColorMatrix type="matrix" values="0 0 0 0 0 0 0 0 0 0 0 0 0 0 0 0 0 0 0.25 0"/>
<feBlend mode="normal" in2="BackgroundImageFix" result="effect1_dropShadow_1_19"/>
<feBlend mode="normal" in="SourceGraphic" in2="effect1_dropShadow_1_19" result="shape"/>
</filter>
<filter id="filter2_d_1_19" x="374.761" y="46.4161" width="248.701" height="260.343" filterUnits="userSpaceOnUse" color-interpolation-filters="sRGB">
<feFlood flood-opacity="0" result="BackgroundImageFix"/>
<feColorMatrix in="SourceAlpha" type="matrix" values="0 0 0 0 0 0 0 0 0 0 0 0 0 0 0 0 0 0 127 0" result="hardAlpha"/>
<feOffset dy="6"/>
<feGaussianBlur stdDeviation="2"/>
<feComposite in2="hardAlpha" operator="out"/>
<feColorMatrix type="matrix" values="0 0 0 0 0 0 0 0 0 0 0 0 0 0 0 0 0 0 0.25 0"/>
<feBlend mode="normal" in2="BackgroundImageFix" result="effect1_dropShadow_1_19"/>
<feBlend mode="normal" in="SourceGraphic" in2="effect1_dropShadow_1_19" result="shape"/>
</filter>
<filter id="filter3_d_1_19" x="224.736" y="277" width="202.461" height="138.166" filterUnits="userSpaceOnUse" color-interpolation-filters="sRGB">
<feFlood flood-opacity="0" result="BackgroundImageFix"/>
<feColorMatrix in="SourceAlpha" type="matrix" values="0 0 0 0 0 0 0 0 0 0 0 0 0 0 0 0 0 0 127 0" result="hardAlpha"/>
<feOffset dy="4"/>
<feGaussianBlur stdDeviation="2"/>
<feComposite in2="hardAlpha" operator="out"/>
<feColorMatrix type="matrix" values="0 0 0 0 0 0 0 0 0 0 0 0 0 0 0 0 0 0 0.25 0"/>
<feBlend mode="normal" in2="BackgroundImageFix" result="effect1_dropShadow_1_19"/>
<feBlend mode="normal" in="SourceGraphic" in2="effect1_dropShadow_1_19" result="shape"/>
</filter>
</defs>
</svg>
