<svg width="389" height="303" viewBox="0 0 389 303" fill="none" xmlns="http://www.w3.org/2000/svg">
<rect x="56" y="94" width="280" height="209" fill="#D8CCA3"/>
<path d="M106 204C106 176.386 128.386 154 156 154H237C264.614 154 287 176.386 287 204V301H106V204Z" fill="#87805E"/>
<line x1="0.726668" y1="126.581" x2="193.727" y2="0.58133" stroke="#F1DEC9"/>
<path d="M388.727 127.419L194 0.500004" stroke="#F1DEC9"/>
<path d="M194 1L387.99 127H0.0103149L194 1Z" fill="#B09B71"/>
<ellipse cx="169.5" cy="286.5" rx="9.5" ry="8.5" fill="#EDDFB3"/>
<ellipse cx="229.5" cy="251.5" rx="9.5" ry="8.5" fill="#EDDFB3"/>
<ellipse cx="162.5" cy="277.5" rx="9.5" ry="8.5" fill="#EDDFB3"/>
<ellipse cx="221.5" cy="239.5" rx="9.5" ry="8.5" fill="#EDDFB3"/>
<path d="M166 272C204 250 217.167 244.5 216.5 242.5L225.5 253C183.1 276.2 177.667 283 176 285L166 272Z" fill="#EDDFB3" stroke="#EDDFB3"/>
</svg>
